ffmpeg started on 2025-06-06 at 19:50:17
Report written to "D:\Convert\FFMetrics\reports\ssim_report-6.txt"
Log level: 32
Command line:
ffmpeg -hide_banner -nostdin -i "G:\\\xc0\xed\xe8\xec\xe5\\\xce\xed\xe3\xee\xe8\xed\xe3\xe8\\!_36_\xce\xf1\xe5\xed\xfc_2024\\DreamCast\\\xd0\xee\xed \xca\xe0\xec\xee\xed\xee\xf5\xe0\xf1\xe8 - \xcd\xe5\xe2\xec\xe5\xed\xff\xe5\xec\xfb\xe9 \xe4\xe5\xf2\xe5\xea\xf2\xe8\xe2\\\xd2\xc2-2\\DC_Kamonohashi_Ron_no_Kindan_Suiri_2nd_Season_07_Telegram_HEVC.mkv" -i "G:\\\xc0\xed\xe8\xec\xe5\\\xce\xed\xe3\xee\xe8\xed\xe3\xe8\\!_36_\xce\xf1\xe5\xed\xfc_2024\\DreamCast\\\xd0\xee\xed \xca\xe0\xec\xee\xed\xee\xf5\xe0\xf1\xe8 - \xcd\xe5\xe2\xec\xe5\xed\xff\xe5\xec\xfb\xe9 \xe4\xe5\xf2\xe5\xea\xf2\xe8\xe2\\\xd2\xc2-2\\DC_Kamonohashi_Ron_no_Kindan_Suiri_2nd_Season_07_Telegram.mp4" -lavfi "[0:v]settb=AVTB,setpts=PTS-STARTPTS,format=pix_fmts=yuv420p10,fps=24000/1001,scale=1920:1080:flags=bicubic[main];[1:v]settb=AVTB,setpts=PTS-STARTPTS,format=pix_fmts=yuv420p,fps=24000/1001,scale=1920:1080:flags=bicubic[ref];[main][ref]ssim=eof_action=endall:stats_file='D\\:/Convert/FFMetrics/logs/ssim_logfile-6.txt'" -f null -
Input #0, matroska,webm, from 'G:\Аниме\Онгоинги\!_36_Осень_2024\DreamCast\Рон Камонохаси - Невменяемый детектив\ТВ-2\DC_Kamonohashi_Ron_no_Kindan_Suiri_2nd_Season_07_Telegram_HEVC.mkv':
  Metadata:
    COMPATIBLE_BRANDS: isomiso2avc1mp41
    MAJOR_BRAND     : isom
    MINOR_VERSION   : 512
    ENCODER         : Lavf61.7.100
  Duration: 00:23:46.65, start: -0.021000, bitrate: 744 kb/s
  Stream #0:0: Video: hevc (Main 10), yuv420p10le(tv, bt709, progressive), 1920x1080 [SAR 1:1 DAR 16:9], 23.98 fps, 23.98 tbr, 1k tbn (default)
      Metadata:
        HANDLER_NAME    : VideoHandler
        VENDOR_ID       : [0][0][0][0]
        ENCODER         : Lavc61.19.100 libx265
        BPS             : 546489
        DURATION        : 00:23:46.549708333
        NUMBER_OF_FRAMES: 34203
        NUMBER_OF_BYTES : 97449232
        _STATISTICS_WRITING_APP: mkvpropedit v66.0.0 ('Josie') 64-bit
        _STATISTICS_WRITING_DATE_UTC: 2025-06-04 07:46:26
        _STATISTICS_TAGS: BPS DURATION NUMBER_OF_FRAMES NUMBER_OF_BYTES
  Stream #0:1: Audio: aac (LC), 48000 Hz, stereo, fltp (default)
      Metadata:
        HANDLER_NAME    : SoundHandler
        VENDOR_ID       : [0][0][0][0]
        ENCODER         : Lavc61.19.100 aac
        BPS             : 193607
        DURATION        : 00:23:46.645000000
        NUMBER_OF_FRAMES: 66875
        NUMBER_OF_BYTES : 34526180
        _STATISTICS_WRITING_APP: mkvpropedit v66.0.0 ('Josie') 64-bit
        _STATISTICS_WRITING_DATE_UTC: 2025-06-04 07:46:26
        _STATISTICS_TAGS: BPS DURATION NUMBER_OF_FRAMES NUMBER_OF_BYTES
Input #1, mov,mp4,m4a,3gp,3g2,mj2, from 'G:\Аниме\Онгоинги\!_36_Осень_2024\DreamCast\Рон Камонохаси - Невменяемый детектив\ТВ-2\DC_Kamonohashi_Ron_no_Kindan_Suiri_2nd_Season_07_Telegram.mp4':
  Metadata:
    major_brand     : isom
    minor_version   : 512
    compatible_brands: isomiso2avc1mp41
    encoder         : Lavf61.1.100
  Duration: 00:23:46.62, start: 0.000000, bitrate: 3356 kb/s
  Stream #1:0[0x1](und): Video: h264 (High) (avc1 / 0x31637661), yuv420p(tv, bt709, progressive), 1920x1080 [SAR 1:1 DAR 16:9], 3208 kb/s, 23.98 fps, 23.98 tbr, 24k tbn (default)
      Metadata:
        handler_name    : VideoHandler
        vendor_id       : [0][0][0][0]
        encoder         : Lavc61.3.100 h264_qsv
  Stream #1:1[0x2](und): Audio: aac (HE-AACv2) (mp4a / 0x6134706D), 48000 Hz, stereo, fltp, 144 kb/s (default)
      Metadata:
        handler_name    : SoundHandler
        vendor_id       : [0][0][0][0]
Stream mapping:
  Stream #0:0 (hevc) -> settb:default
  Stream #1:0 (h264) -> settb:default
  ssim:default -> Stream #0:0 (wrapped_avframe)
  Stream #0:1 -> #0:1 (aac (native) -> pcm_s16le (native))
Output #0, null, to 'pipe:':
  Metadata:
    COMPATIBLE_BRANDS: isomiso2avc1mp41
    MAJOR_BRAND     : isom
    MINOR_VERSION   : 512
    encoder         : Lavf61.7.100
  Stream #0:0: Video: wrapped_avframe, yuv420p10le(tv, bt709, progressive), 1920x1080 [SAR 1:1 DAR 16:9], q=2-31, 200 kb/s, 23.98 fps, 23.98 tbn
      Metadata:
        encoder         : Lavc61.19.100 wrapped_avframe
  Stream #0:1: Audio: pcm_s16le, 48000 Hz, stereo, s16, 1536 kb/s (default)
      Metadata:
        HANDLER_NAME    : SoundHandler
        VENDOR_ID       : [0][0][0][0]
        _STATISTICS_TAGS: BPS DURATION NUMBER_OF_FRAMES NUMBER_OF_BYTES
        BPS             : 193607
        DURATION        : 00:23:46.645000000
        NUMBER_OF_FRAMES: 66875
        NUMBER_OF_BYTES : 34526180
        _STATISTICS_WRITING_APP: mkvpropedit v66.0.0 ('Josie') 64-bit
        _STATISTICS_WRITING_DATE_UTC: 2025-06-04 07:46:26
        encoder         : Lavc61.19.100 pcm_s16le
frame=  176 fps=0.0 q=-0.0 size=N/A time=00:00:07.34 bitrate=N/A speed=14.5x    frame=  445 fps=434 q=-0.0 size=N/A time=00:00:18.56 bitrate=N/A speed=18.1x    frame=  720 fps=470 q=-0.0 size=N/A time=00:00:30.03 bitrate=N/A speed=19.6x    frame=  998 fps=485 q=-0.0 size=N/A time=00:00:41.62 bitrate=N/A speed=20.2x    frame= 1253 fps=487 q=-0.0 size=N/A time=00:00:52.26 bitrate=N/A speed=20.3x    frame= 1511 fps=491 q=-0.0 size=N/A time=00:01:03.02 bitrate=N/A speed=20.5x    frame= 1788 fps=496 q=-0.0 size=N/A time=00:01:14.57 bitrate=N/A speed=20.7x    frame= 2021 fps=490 q=-0.0 size=N/A time=00:01:24.29 bitrate=N/A speed=20.5x    frame= 2283 fps=492 q=-0.0 size=N/A time=00:01:35.22 bitrate=N/A speed=20.5x    frame= 2513 fps=489 q=-0.0 size=N/A time=00:01:44.81 bitrate=N/A speed=20.4x    frame= 2746 fps=485 q=-0.0 size=N/A time=00:01:54.53 bitrate=N/A speed=20.2x    frame= 2999 fps=485 q=-0.0 size=N/A time=00:02:05.08 bitrate=N/A speed=20.2x    frame= 3253 fps=486 q=-0.0 size=N/A time=00:02:15.67 bitrate=N/A speed=20.3x    frame= 3527 fps=489 q=-0.0 size=N/A time=00:02:27.10 bitrate=N/A speed=20.4x    frame= 3719 fps=481 q=-0.0 size=N/A time=00:02:35.11 bitrate=N/A speed=20.1x    frame= 3935 fps=477 q=-0.0 size=N/A time=00:02:44.12 bitrate=N/A speed=19.9x    frame= 4129 fps=471 q=-0.0 size=N/A time=00:02:52.21 bitrate=N/A speed=19.7x    frame= 4357 fps=470 q=-0.0 size=N/A time=00:03:01.72 bitrate=N/A speed=19.6x    frame= 4605 fps=471 q=-0.0 size=N/A time=00:03:12.06 bitrate=N/A speed=19.6x    frame= 4885 fps=474 q=-0.0 size=N/A time=00:03:23.74 bitrate=N/A speed=19.8x    frame= 5154 fps=476 q=-0.0 size=N/A time=00:03:34.96 bitrate=N/A speed=19.9x    frame= 5435 fps=479 q=-0.0 size=N/A time=00:03:46.68 bitrate=N/A speed=  20x    frame= 5718 fps=482 q=-0.0 size=N/A time=00:03:58.48 bitrate=N/A speed=20.1x    frame= 5980 fps=483 q=-0.0 size=N/A time=00:04:09.41 bitrate=N/A speed=20.2x    frame= 6258 fps=486 q=-0.0 size=N/A time=00:04:21.01 bitrate=N/A speed=20.3x    frame= 6523 fps=487 q=-0.0 size=N/A time=00:04:32.06 bitrate=N/A speed=20.3x    frame= 6794 fps=488 q=-0.0 size=N/A time=00:04:43.40 bitrate=N/A speed=20.4x    frame= 7078 fps=490 q=-0.0 size=N/A time=00:04:55.21 bitrate=N/A speed=20.5x    frame= 7325 fps=490 q=-0.0 size=N/A time=00:05:05.51 bitrate=N/A speed=20.4x    frame= 7611 fps=492 q=-0.0 size=N/A time=00:05:17.44 bitrate=N/A speed=20.5x    frame= 7880 fps=493 q=-0.0 size=N/A time=00:05:28.66 bitrate=N/A speed=20.6x    frame= 8152 fps=494 q=-0.0 size=N/A time=00:05:40.00 bitrate=N/A speed=20.6x    frame= 8421 fps=495 q=-0.0 size=N/A time=00:05:51.22 bitrate=N/A speed=20.7x    frame= 8696 fps=496 q=-0.0 size=N/A time=00:06:02.69 bitrate=N/A speed=20.7x    frame= 8961 fps=497 q=-0.0 size=N/A time=00:06:13.74 bitrate=N/A speed=20.7x    frame= 9229 fps=497 q=-0.0 size=N/A time=00:06:24.92 bitrate=N/A speed=20.7x    frame= 9517 fps=499 q=-0.0 size=N/A time=00:06:36.93 bitrate=N/A speed=20.8x    frame= 9799 fps=500 q=-0.0 size=N/A time=00:06:48.69 bitrate=N/A speed=20.9x    frame=10069 fps=501 q=-0.0 size=N/A time=00:06:59.96 bitrate=N/A speed=20.9x    frame=10346 fps=502 q=-0.0 size=N/A time=00:07:11.51 bitrate=N/A speed=20.9x    frame=10630 fps=503 q=-0.0 size=N/A time=00:07:23.35 bitrate=N/A speed=  21x    frame=10882 fps=503 q=-0.0 size=N/A time=00:07:33.87 bitrate=N/A speed=  21x    frame=11155 fps=503 q=-0.0 size=N/A time=00:07:45.25 bitrate=N/A speed=  21x    frame=11400 fps=503 q=-0.0 size=N/A time=00:07:55.47 bitrate=N/A speed=  21x    frame=11661 fps=503 q=-0.0 size=N/A time=00:08:06.36 bitrate=N/A speed=  21x    frame=11912 fps=502 q=-0.0 size=N/A time=00:08:16.82 bitrate=N/A speed=  21x    frame=12172 fps=502 q=-0.0 size=N/A time=00:08:27.67 bitrate=N/A speed=  21x    frame=12419 fps=502 q=-0.0 size=N/A time=00:08:37.97 bitrate=N/A speed=20.9x    frame=12703 fps=503 q=-0.0 size=N/A time=00:08:49.82 bitrate=N/A speed=  21x    frame=12992 fps=504 q=-0.0 size=N/A time=00:09:01.87 bitrate=N/A speed=  21x    frame=13265 fps=504 q=-0.0 size=N/A time=00:09:13.26 bitrate=N/A speed=  21x    frame=13535 fps=505 q=-0.0 size=N/A time=00:09:24.52 bitrate=N/A speed=21.1x    frame=13821 fps=506 q=-0.0 size=N/A time=00:09:36.45 bitrate=N/A speed=21.1x    frame=14062 fps=505 q=-0.0 size=N/A time=00:09:46.50 bitrate=N/A speed=21.1x    frame=14338 fps=506 q=-0.0 size=N/A time=00:09:58.01 bitrate=N/A speed=21.1x    frame=14610 fps=506 q=-0.0 size=N/A time=00:10:09.35 bitrate=N/A speed=21.1x    frame=14874 fps=506 q=-0.0 size=N/A time=00:10:20.36 bitrate=N/A speed=21.1x    frame=15158 fps=507 q=-0.0 size=N/A time=00:10:32.21 bitrate=N/A speed=21.1x    frame=15432 fps=507 q=-0.0 size=N/A time=00:10:43.64 bitrate=N/A speed=21.2x    frame=15705 fps=508 q=-0.0 size=N/A time=00:10:55.02 bitrate=N/A speed=21.2x    frame=15981 fps=508 q=-0.0 size=N/A time=00:11:06.54 bitrate=N/A speed=21.2x    frame=16244 fps=508 q=-0.0 size=N/A time=00:11:17.51 bitrate=N/A speed=21.2x    frame=16534 fps=509 q=-0.0 size=N/A time=00:11:29.60 bitrate=N/A speed=21.2x    frame=16783 fps=509 q=-0.0 size=N/A time=00:11:39.99 bitrate=N/A speed=21.2x    frame=17062 fps=509 q=-0.0 size=N/A time=00:11:51.62 bitrate=N/A speed=21.2x    frame=17329 fps=509 q=-0.0 size=N/A time=00:12:02.76 bitrate=N/A speed=21.2x    frame=17597 fps=510 q=-0.0 size=N/A time=00:12:13.94 bitrate=N/A speed=21.3x    frame=17876 fps=510 q=-0.0 size=N/A time=00:12:25.57 bitrate=N/A speed=21.3x    frame=18165 fps=511 q=-0.0 size=N/A time=00:12:37.63 bitrate=N/A speed=21.3x    frame=18445 fps=511 q=-0.0 size=N/A time=00:12:49.31 bitrate=N/A speed=21.3x    frame=18709 fps=511 q=-0.0 size=N/A time=00:13:00.32 bitrate=N/A speed=21.3x    frame=18967 fps=511 q=-0.0 size=N/A time=00:13:11.08 bitrate=N/A speed=21.3x    frame=19251 fps=511 q=-0.0 size=N/A time=00:13:22.92 bitrate=N/A speed=21.3x    frame=19515 fps=512 q=-0.0 size=N/A time=00:13:33.93 bitrate=N/A speed=21.3x    frame=19808 fps=512 q=-0.0 size=N/A time=00:13:46.15 bitrate=N/A speed=21.4x    frame=20011 fps=511 q=-0.0 size=N/A time=00:13:54.62 bitrate=N/A speed=21.3x    frame=20231 fps=510 q=-0.0 size=N/A time=00:14:03.80 bitrate=N/A speed=21.3x    frame=20512 fps=510 q=-0.0 size=N/A time=00:14:15.52 bitrate=N/A speed=21.3x    frame=20783 fps=510 q=-0.0 size=N/A time=00:14:26.82 bitrate=N/A speed=21.3x    frame=21023 fps=510 q=-0.0 size=N/A time=00:14:36.83 bitrate=N/A speed=21.3x    frame=21282 fps=510 q=-0.0 size=N/A time=00:14:47.63 bitrate=N/A speed=21.3x    frame=21524 fps=509 q=-0.0 size=N/A time=00:14:57.73 bitrate=N/A speed=21.2x    frame=21804 fps=510 q=-0.0 size=N/A time=00:15:09.40 bitrate=N/A speed=21.3x    frame=22055 fps=509 q=-0.0 size=N/A time=00:15:19.87 bitrate=N/A speed=21.2x    frame=22304 fps=509 q=-0.0 size=N/A time=00:15:30.26 bitrate=N/A speed=21.2x    frame=22511 fps=508 q=-0.0 size=N/A time=00:15:38.89 bitrate=N/A speed=21.2x    frame=22781 fps=508 q=-0.0 size=N/A time=00:15:50.15 bitrate=N/A speed=21.2x    frame=23026 fps=507 q=-0.0 size=N/A time=00:16:00.37 bitrate=N/A speed=21.2x    frame=23316 fps=508 q=-0.0 size=N/A time=00:16:12.47 bitrate=N/A speed=21.2x    frame=23598 fps=509 q=-0.0 size=N/A time=00:16:24.23 bitrate=N/A speed=21.2x    frame=23892 fps=509 q=-0.0 size=N/A time=00:16:36.49 bitrate=N/A speed=21.2x    frame=24177 fps=510 q=-0.0 size=N/A time=00:16:48.38 bitrate=N/A speed=21.3x    frame=24450 fps=510 q=-0.0 size=N/A time=00:16:59.76 bitrate=N/A speed=21.3x    frame=24702 fps=510 q=-0.0 size=N/A time=00:17:10.27 bitrate=N/A speed=21.3x    frame=24948 fps=509 q=-0.0 size=N/A time=00:17:20.53 bitrate=N/A speed=21.2x    frame=25226 fps=510 q=-0.0 size=N/A time=00:17:32.13 bitrate=N/A speed=21.3x    frame=25482 fps=510 q=-0.0 size=N/A time=00:17:42.81 bitrate=N/A speed=21.3x    frame=25760 fps=510 q=-0.0 size=N/A time=00:17:54.40 bitrate=N/A speed=21.3x    frame=26011 fps=510 q=-0.0 size=N/A time=00:18:04.87 bitrate=N/A speed=21.3x    frame=26297 fps=510 q=-0.0 size=N/A time=00:18:16.80 bitrate=N/A speed=21.3x    frame=26567 fps=510 q=-0.0 size=N/A time=00:18:28.06 bitrate=N/A speed=21.3x    frame=26838 fps=510 q=-0.0 size=N/A time=00:18:39.36 bitrate=N/A speed=21.3x    frame=27096 fps=510 q=-0.0 size=N/A time=00:18:50.12 bitrate=N/A speed=21.3x    frame=27360 fps=510 q=-0.0 size=N/A time=00:19:01.14 bitrate=N/A speed=21.3x    frame=27625 fps=510 q=-0.0 size=N/A time=00:19:12.19 bitrate=N/A speed=21.3x    frame=27889 fps=510 q=-0.0 size=N/A time=00:19:23.20 bitrate=N/A speed=21.3x    frame=28147 fps=510 q=-0.0 size=N/A time=00:19:33.96 bitrate=N/A speed=21.3x    frame=28427 fps=510 q=-0.0 size=N/A time=00:19:45.64 bitrate=N/A speed=21.3x    frame=28691 fps=510 q=-0.0 size=N/A time=00:19:56.65 bitrate=N/A speed=21.3x    frame=28926 fps=510 q=-0.0 size=N/A time=00:20:06.45 bitrate=N/A speed=21.3x    frame=29179 fps=510 q=-0.0 size=N/A time=00:20:17.00 bitrate=N/A speed=21.3x    frame=29446 fps=510 q=-0.0 size=N/A time=00:20:28.14 bitrate=N/A speed=21.3x    frame=29730 fps=510 q=-0.0 size=N/A time=00:20:39.98 bitrate=N/A speed=21.3x    frame=30018 fps=511 q=-0.0 size=N/A time=00:20:52.00 bitrate=N/A speed=21.3x    frame=30300 fps=511 q=-0.0 size=N/A time=00:21:03.76 bitrate=N/A speed=21.3x    frame=30580 fps=511 q=-0.0 size=N/A time=00:21:15.44 bitrate=N/A speed=21.3x    frame=30834 fps=511 q=-0.0 size=N/A time=00:21:26.03 bitrate=N/A speed=21.3x    frame=31122 fps=511 q=-0.0 size=N/A time=00:21:38.04 bitrate=N/A speed=21.3x    frame=31377 fps=511 q=-0.0 size=N/A time=00:21:48.68 bitrate=N/A speed=21.3x    frame=31646 fps=511 q=-0.0 size=N/A time=00:21:59.90 bitrate=N/A speed=21.3x    frame=31917 fps=512 q=-0.0 size=N/A time=00:22:11.20 bitrate=N/A speed=21.3x    frame=32187 fps=512 q=-0.0 size=N/A time=00:22:22.46 bitrate=N/A speed=21.3x    frame=32442 fps=511 q=-0.0 size=N/A time=00:22:33.10 bitrate=N/A speed=21.3x    frame=32690 fps=511 q=-0.0 size=N/A time=00:22:43.44 bitrate=N/A speed=21.3x    frame=32955 fps=511 q=-0.0 size=N/A time=00:22:54.49 bitrate=N/A speed=21.3x    frame=33191 fps=511 q=-0.0 size=N/A time=00:23:04.34 bitrate=N/A speed=21.3x    frame=33412 fps=510 q=-0.0 size=N/A time=00:23:13.55 bitrate=N/A speed=21.3x    frame=33667 fps=510 q=-0.0 size=N/A time=00:23:24.19 bitrate=N/A speed=21.3x    frame=33924 fps=510 q=-0.0 size=N/A time=00:23:34.91 bitrate=N/A speed=21.3x    frame=34125 fps=509 q=-0.0 size=N/A time=00:23:43.29 bitrate=N/A speed=21.2x    [Parsed_ssim_10 @ 000001bf40d97a80] SSIM Y:0.995657 (23.622079) U:0.993736 (22.031793) V:0.994837 (22.871286) All:0.995200 (23.187847)
[out#0/null @ 000001bf3ef45a00] video:14697KiB audio:267500KiB subtitle:0KiB other streams:0KiB global headers:0KiB muxing overhead: unknown
frame=34203 fps=509 q=-0.0 Lsize=N/A time=00:23:46.55 bitrate=N/A speed=21.2x    
